<svg xmlns="http://www.w3.org/2000/svg" version="1.1" xmlns:xlink="http://www.w3.org/1999/xlink" xmlns:svgjs="http://svgjs.dev/svgjs" width="2000" height="499" viewBox="0 0 2000 499"><g transform="matrix(1,0,0,1,-1.2121212121212466,-1.702390684028586)"><svg viewBox="0 0 396 99" data-background-color="#ffffff" preserveAspectRatio="xMidYMid meet" height="499" width="2000" xmlns="http://www.w3.org/2000/svg" xmlns:xlink="http://www.w3.org/1999/xlink"><g id="tight-bounds" transform="matrix(1,0,0,1,0.2400000000000091,0.33774885314394965)"><svg viewBox="0 0 395.52 98.32450229371211" height="98.32450229371211" width="395.52"><g><svg viewBox="0 0 545.1012316467417 135.50972719800603" height="98.32450229371211" width="395.52"><g transform="matrix(1,0,0,1,0,18.728189504210675)"><svg viewBox="0 0 395.52 98.05334818958468" height="98.05334818958468" width="395.52"><g id="textblocktransform"><svg viewBox="0 0 395.52 98.05334818958468" height="98.05334818958468" width="395.52" id="textblock"><g><svg viewBox="0 0 395.52 59.60582375478928" height="59.60582375478928" width="395.52"><g transform="matrix(1,0,0,1,0,0)"><svg width="395.52" viewBox="1.25 -35.05 234.88 35.4" height="59.60582375478928" data-palette-color="#212529"><path d="M14.65 0.2L14.65 0.2Q12.65 0.2 11-0.68 9.35-1.55 8.3-3.25L8.3-3.25Q8.25-2.3 7.6-1.5 6.95-0.7 5.15-0.7L5.15-0.7Q3.15-0.7 2.2-1.8 1.25-2.9 1.25-4.7L1.25-4.7Q1.25-5.8 1.55-7.88 1.85-9.95 2.27-12.55 2.7-15.15 3.13-17.95 3.55-20.75 3.85-23.4 4.15-26.05 4.15-28.15L4.15-28.15Q4.15-29.55 4-30.6 3.85-31.65 3.45-32.25L3.45-32.25 3.45-32.55Q4.6-33.8 5.85-34.43 7.1-35.05 8.25-35.05L8.25-35.05Q9.95-35.05 11.15-33.7 12.35-32.35 12.35-29.4L12.35-29.4Q12.35-27.95 12.05-25.33 11.75-22.7 11.3-20.1L11.3-20.1Q13.1-22.65 15.13-24 17.15-25.35 19.05-25.35L19.05-25.35Q21.6-25.35 23.4-22.93 25.2-20.5 25.2-15.6L25.2-15.6Q25.2-12.7 24.53-9.88 23.85-7.05 22.5-4.78 21.15-2.5 19.18-1.15 17.2 0.2 14.65 0.2ZM12.15-4.85L12.15-4.85Q13.75-4.85 14.88-6.25 16-7.65 16.57-9.83 17.15-12 17.15-14.3L17.15-14.3Q17.15-15.8 16.9-17.18 16.65-18.55 16.15-19.43 15.65-20.3 14.85-20.3L14.85-20.3Q13.45-20.3 11.68-17.03 9.9-13.75 8.9-7.75L8.9-7.75Q9.8-4.85 12.15-4.85ZM38.7 0.35L38.7 0.35Q35.05 0.35 32.65-1.13 30.25-2.6 29.05-5.03 27.85-7.45 27.85-10.25L27.85-10.25Q27.85-12.9 28.87-15.58 29.9-18.25 31.87-20.45 33.85-22.65 36.67-24 39.5-25.35 43.05-25.35L43.05-25.35Q47.45-25.35 49.47-23.38 51.5-21.4 51.5-18.6L51.5-18.6Q51.5-16.2 50.22-14.18 48.95-12.15 46.85-10.93 44.75-9.7 42.25-9.7L42.25-9.7Q40.95-9.7 39.6-10.1 38.25-10.5 36.95-11.35L36.95-11.35Q37.2-8.25 38.75-6.85 40.3-5.45 42.45-5.45L42.45-5.45Q43.95-5.45 45.45-6.03 46.95-6.6 48.22-7.53 49.5-8.45 50.2-9.5L50.2-9.5 50.55-9.25Q50.55-6.65 49.47-4.83 48.4-3 46.65-1.85 44.9-0.7 42.82-0.18 40.75 0.35 38.7 0.35ZM39.85-13.15L39.85-13.15Q41.45-13.15 42.45-14.08 43.45-15 43.95-16.25 44.45-17.5 44.45-18.45L44.45-18.45Q44.45-19.6 43.8-20.38 43.15-21.15 42-21.15L42-21.15Q41.1-21.15 40.02-20.5 38.95-19.85 38.1-18.28 37.25-16.7 37-13.9L37-13.9Q38.6-13.15 39.85-13.15ZM61.1 0.2L61.1 0.2Q59.5 0.2 58.07-0.53 56.65-1.25 55.77-2.8 54.9-4.35 54.9-6.75L54.9-6.75Q54.9-8.05 55.15-10.15 55.4-12.25 55.82-14.75 56.25-17.25 56.7-19.75L56.7-19.75Q55.7-19.7 54.77-19.55 53.85-19.4 52.95-19.2L52.95-19.2 52.85-19.55Q53.85-20.75 54.95-21.6 56.05-22.45 57.25-23L57.25-23Q57.9-26.3 58.35-28.73 58.8-31.15 58.8-31.6L58.8-31.6Q58.8-32.45 60.12-33 61.45-33.55 63.1-33.55L63.1-33.55Q64.55-33.55 65.82-33 67.09-32.45 67.55-31.15L67.55-31.15Q67.25-30.85 66.7-28.93 66.15-27 65.55-24.25L65.55-24.25Q66.5-24.2 67.5-24.15 68.5-24.1 69.55-24L69.55-24Q69.65-23.7 69.7-23.35 69.75-23 69.75-22.6L69.75-22.6Q69.75-21.85 69.52-20.98 69.3-20.1 69-19.4L69-19.4Q67.8-19.5 66.75-19.63 65.7-19.75 64.7-19.8L64.7-19.8Q64.3-17.65 63.97-15.5 63.65-13.35 63.47-11.6 63.3-9.85 63.3-8.85L63.3-8.85Q63.3-6.75 64.07-6.05 64.84-5.35 65.95-5.35L65.95-5.35Q66.95-5.35 67.75-5.75 68.55-6.15 68.9-6.7L68.9-6.7 69.4-6.55Q69.09-4.5 67.8-2.98 66.5-1.45 64.7-0.63 62.9 0.2 61.1 0.2ZM81.29 0.35L81.29 0.35Q77.99 0.35 75.72-1.15 73.44-2.65 72.29-5.08 71.14-7.5 71.14-10.3L71.14-10.3Q71.14-12.95 72.17-15.6 73.19-18.25 75.19-20.48 77.19-22.7 80.07-24.03 82.94-25.35 86.69-25.35L86.69-25.35Q90.39-25.35 92.19-23.88 93.99-22.4 93.99-20.65L93.99-20.65Q93.99-18.8 92.14-17.25 90.29-15.7 86.74-15.7L86.74-15.7Q86.94-16.45 87.07-17.23 87.19-18 87.19-18.7L87.19-18.7Q87.19-19.75 86.74-20.48 86.29-21.2 85.14-21.2L85.14-21.2Q84.09-21.2 82.92-20.25 81.74-19.3 80.92-17.45 80.09-15.6 80.09-12.9L80.09-12.9Q80.09-10.25 80.97-8.6 81.84-6.95 83.24-6.23 84.64-5.5 86.19-5.5L86.19-5.5Q88.24-5.5 90.14-6.58 92.04-7.65 92.89-9.55L92.89-9.55 93.39-9.35Q93.39-6.75 92.22-4.93 91.04-3.1 89.19-1.93 87.34-0.75 85.24-0.2 83.14 0.35 81.29 0.35ZM106.99 0.35L106.99 0.35Q103.24 0.35 100.79-1.15 98.34-2.65 97.17-5.13 95.99-7.6 95.99-10.4L95.99-10.4Q95.99-13.05 96.97-15.7 97.94-18.35 99.82-20.53 101.69-22.7 104.39-24.03 107.09-25.35 110.59-25.35L110.59-25.35Q114.34-25.35 116.77-23.83 119.19-22.3 120.37-19.8 121.54-17.3 121.54-14.45L121.54-14.45Q121.54-11.85 120.59-9.22 119.64-6.6 117.77-4.42 115.89-2.25 113.19-0.95 110.49 0.35 106.99 0.35ZM108.34-3.9L108.34-3.9Q109.69-3.9 110.59-5.3 111.49-6.7 111.94-8.88 112.39-11.05 112.39-13.3L112.39-13.3Q112.39-15.3 112.02-17.07 111.64-18.85 110.89-19.98 110.14-21.1 108.94-21.1L108.94-21.1Q107.64-21.1 106.72-19.7 105.79-18.3 105.34-16.15 104.89-14 104.89-11.7L104.89-11.7Q104.89-9.7 105.27-7.93 105.64-6.15 106.39-5.03 107.14-3.9 108.34-3.9ZM130.29 0.15L130.29 0.15Q128.44 0.15 126.94-1.33 125.44-2.8 125.44-5.45L125.44-5.45Q125.44-6.75 125.79-8.4 126.14-10.05 126.56-11.75 126.99-13.45 127.34-14.95 127.69-16.45 127.69-17.4L127.69-17.4Q127.69-18.4 127.29-18.98 126.89-19.55 126.24-19.55L126.24-19.55Q125.39-19.55 124.39-18.55L124.39-18.55 124.09-18.75Q124.04-19.55 124.44-20.65 124.84-21.75 125.66-22.78 126.49-23.8 127.79-24.5 129.09-25.2 130.89-25.2L130.89-25.2Q133.54-25.2 134.81-23.68 136.09-22.15 136.09-19.95L136.09-19.95Q136.09-19.15 135.94-18.4L135.94-18.4Q136.99-19.95 138.54-21.53 140.09-23.1 141.96-24.15 143.84-25.2 145.84-25.2L145.84-25.2Q148.19-25.2 149.04-23.7 149.89-22.2 149.89-19.95L149.89-19.95Q149.89-17.85 149.44-15.45 148.99-13.05 148.54-10.83 148.09-8.6 148.09-7.1L148.09-7.1Q148.09-5.1 149.24-5.1L149.24-5.1Q149.84-5.1 150.29-5.48 150.74-5.85 150.89-6.2L150.89-6.2 151.24-6.05Q151.24-4.2 150.21-2.8 149.19-1.4 147.64-0.63 146.09 0.15 144.49 0.15L144.49 0.15Q142.54 0.15 141.04-1.2 139.54-2.55 139.54-5.6L139.54-5.6Q139.54-7.4 140.01-9.5 140.49-11.6 140.94-13.55 141.39-15.5 141.39-16.75L141.39-16.75Q141.39-17.5 141.11-17.93 140.84-18.35 140.14-18.35L140.14-18.35Q138.99-18.35 137.61-17.3 136.24-16.25 135.26-14.5 134.29-12.75 134.29-10.65L134.29-10.65Q134.29-9.3 134.61-8.05 134.94-6.8 134.94-5.35L134.94-5.35Q134.94-2.65 133.54-1.25 132.14 0.15 130.29 0.15ZM160.99 0.2L160.99 0.2Q159.39 0.2 157.96-0.53 156.54-1.25 155.66-2.8 154.79-4.35 154.79-6.75L154.79-6.75Q154.79-8.05 155.04-10.15 155.29-12.25 155.71-14.75 156.14-17.25 156.59-19.75L156.59-19.75Q155.59-19.7 154.66-19.55 153.74-19.4 152.84-19.2L152.84-19.2 152.74-19.55Q153.74-20.75 154.84-21.6 155.94-22.45 157.14-23L157.14-23Q157.79-26.3 158.24-28.73 158.69-31.15 158.69-31.6L158.69-31.6Q158.69-32.45 160.01-33 161.34-33.55 162.99-33.55L162.99-33.55Q164.44-33.55 165.71-33 166.99-32.45 167.44-31.15L167.44-31.15Q167.14-30.85 166.59-28.93 166.04-27 165.44-24.25L165.44-24.25Q166.39-24.2 167.39-24.15 168.39-24.1 169.44-24L169.44-24Q169.54-23.7 169.59-23.35 169.64-23 169.64-22.6L169.64-22.6Q169.64-21.85 169.41-20.98 169.19-20.1 168.89-19.4L168.89-19.4Q167.69-19.5 166.64-19.63 165.59-19.75 164.59-19.8L164.59-19.8Q164.19-17.65 163.86-15.5 163.54-13.35 163.36-11.6 163.19-9.85 163.19-8.85L163.19-8.85Q163.19-6.75 163.96-6.05 164.74-5.35 165.84-5.35L165.84-5.35Q166.84-5.35 167.64-5.75 168.44-6.15 168.79-6.7L168.79-6.7 169.29-6.55Q168.99-4.5 167.69-2.98 166.39-1.45 164.59-0.63 162.79 0.2 160.99 0.2ZM177.38 0.2L177.38 0.2Q175.58 0.2 174.18-1.28 172.78-2.75 172.78-5.45L172.78-5.45Q172.78-6.75 173.08-8.4 173.38-10.05 173.78-11.78 174.18-13.5 174.48-15.03 174.78-16.55 174.78-17.55L174.78-17.55Q174.78-18.6 174.41-19.23 174.03-19.85 173.43-19.85L173.43-19.85Q172.48-19.85 171.48-18.55L171.48-18.55 171.18-18.75Q171.13-19.55 171.53-20.65 171.93-21.75 172.78-22.78 173.63-23.8 174.96-24.5 176.28-25.2 178.08-25.2L178.08-25.2Q180.73-25.2 181.93-23.68 183.13-22.15 183.13-20L183.13-20Q183.13-19.65 183.11-19.28 183.08-18.9 183.03-18.55L183.03-18.55Q184.83-21.8 186.81-23.53 188.78-25.25 190.48-25.25L190.48-25.25Q192.08-25.25 192.83-24 193.58-22.75 193.58-21L193.58-21Q193.58-19.4 192.96-17.75 192.33-16.1 191.11-15.03 189.88-13.95 188.13-14L188.13-14 187.93-14.1Q187.88-15.4 187.08-16.15 186.28-16.9 185.28-16.9L185.28-16.9Q183.93-16.9 182.76-15.55 181.58-14.2 181.58-11.65L181.58-11.65Q181.58-10.1 181.93-8.3 182.28-6.5 182.28-5.25L182.28-5.25Q182.28-3.75 181.58-2.5 180.88-1.25 179.78-0.53 178.68 0.2 177.38 0.2ZM205.98 0.35L205.98 0.35Q202.23 0.35 199.78-1.15 197.33-2.65 196.16-5.13 194.98-7.6 194.98-10.4L194.98-10.4Q194.98-13.05 195.96-15.7 196.93-18.35 198.81-20.53 200.68-22.7 203.38-24.03 206.08-25.35 209.58-25.35L209.58-25.35Q213.33-25.35 215.76-23.83 218.18-22.3 219.36-19.8 220.53-17.3 220.53-14.45L220.53-14.45Q220.53-11.85 219.58-9.22 218.63-6.6 216.76-4.42 214.88-2.25 212.18-0.95 209.48 0.35 205.98 0.35ZM207.33-3.9L207.33-3.9Q208.68-3.9 209.58-5.3 210.48-6.7 210.93-8.88 211.38-11.05 211.38-13.3L211.38-13.3Q211.38-15.3 211.01-17.07 210.63-18.85 209.88-19.98 209.13-21.1 207.93-21.1L207.93-21.1Q206.63-21.1 205.71-19.7 204.78-18.3 204.33-16.15 203.88-14 203.88-11.7L203.88-11.7Q203.88-9.7 204.26-7.93 204.63-6.15 205.38-5.03 206.13-3.9 207.33-3.9ZM229.13 0.2L229.13 0.2Q227.78 0.2 226.5-0.48 225.23-1.15 224.43-2.65 223.63-4.15 223.63-6.5L223.63-6.5Q223.63-8.6 224.2-11.43 224.78-14.25 225.5-17.3 226.23-20.35 226.78-23.25 227.33-26.15 227.28-28.4L227.28-28.4Q227.28-30.55 226.78-31.45L226.78-31.45 226.73-31.6Q227.28-33.2 228.68-34.1 230.08-35 231.63-35L231.63-35Q233.38-35 234.75-33.68 236.13-32.35 236.13-29.25L236.13-29.25Q236.13-27.6 235.73-25.33 235.33-23.05 234.78-20.48 234.23-17.9 233.65-15.4 233.08-12.9 232.68-10.8 232.28-8.7 232.28-7.35L232.28-7.35Q232.28-5.95 232.68-5.43 233.08-4.9 233.58-4.9L233.58-4.9Q234.13-4.9 234.63-5.33 235.13-5.75 235.28-6.1L235.28-6.1 235.68-6Q235.63-4.2 234.65-2.8 233.68-1.4 232.2-0.6 230.73 0.2 229.13 0.2Z" opacity="1" transform="matrix(1,0,0,1,0,0)" fill="#212529" class="wordmark-text-0" data-fill-palette-color="primary" id="text-0"></path></svg></g></svg></g><g transform="matrix(1,0,0,1,163.310208,73.67732820352491)"><svg viewBox="0 0 232.209792 24.376019986059774" height="24.376019986059774" width="232.209792"><g transform="matrix(1,0,0,1,0,0)"><svg width="232.209792" viewBox="0 -38.7 473.4 49.7" height="24.376019986059774" data-palette-color="#4c5258"><path d="M8.85-29.45L0-28.75 0.55-34.5 24.3-34.5 23.75-28.75 15.05-29.5 14.85-13 15.45 0 8.45 0 9.05-12.15 8.85-29.45ZM32.2 0Q29.25 0 27.37-1.88 25.5-3.75 25.5-6.93 25.5-10.1 28.4-12.43 31.3-14.75 35.45-14.75L35.45-14.75 38.85-14.75 38.85-15.6Q38.85-18.05 37.85-18.95 36.85-19.85 34.1-19.85L34.1-19.85Q32.95-19.85 31.37-19.38 29.8-18.9 27.85-17.9L27.85-17.9 26.4-21.85Q28.55-23.35 31.62-24.55 34.7-25.75 36.7-25.75L36.7-25.75Q44.55-25.75 44.55-18.15L44.55-18.15 44.55-8.35Q44.55-5.55 46.3-2.1L46.3-2.1 41 0.15Q39.75-2.25 39.15-4.15L39.15-4.15Q36.4 0 32.2 0L32.2 0ZM34.3-5.1L34.3-5.1Q36.3-5.1 38.85-7.15L38.85-7.15 38.85-10.5Q36.2-11.1 34.55-11.1L34.55-11.1Q31.4-11.1 31.4-8.3L31.4-8.3Q31.4-6.85 32.2-5.98 33-5.1 34.3-5.1ZM71.95-3.3L66.25 0.5 56.85-13.35 56.85-13 57.4-1.25 50.65 0 51.25-12.15 50.65-37.45 57.5-38.7 56.85-14.55 66.84-25.5 71.55-22.3 62.8-14.1 71.95-3.3ZM83.74-5.1L83.74-5.1Q85.19-5.1 86.79-5.85 88.39-6.6 89.29-7.35L89.29-7.35 90.19-8.1 92.49-5.3Q91.99-4.45 90.94-3.35 89.89-2.25 88.82-1.48 87.74-0.7 85.97-0.08 84.19 0.55 82.29 0.55L82.29 0.55Q78.24 0.55 75.69-2.53 73.14-5.6 73.14-10.45L73.14-10.45Q73.14-16.55 76.69-21.15 80.24-25.75 84.99-25.75L84.99-25.75Q88.64-25.75 90.67-23.7 92.69-21.65 92.69-17.95L92.69-17.95Q92.69-15.75 91.94-12.95L91.94-12.95 90.94-11.9 78.44-10.75Q79.29-5.1 83.74-5.1ZM83.74-20.6L83.74-20.6Q81.54-20.6 80.04-18.82 78.54-17.05 78.29-14.3L78.29-14.3 86.79-15.35Q86.94-16.5 86.94-17.25L86.94-17.25Q86.94-20.6 83.74-20.6ZM113.34-19.25Q111.14-19.25 109.94-17.68 108.74-16.1 108.74-12.85 108.74-9.6 109.96-7.63 111.19-5.65 113.54-5.65L113.54-5.65Q114.74-5.65 115.89-6.4 117.04-7.15 117.64-7.9L117.64-7.9 118.19-8.7 120.69-6.1Q120.54-5.85 120.31-5.4 120.09-4.95 119.21-3.8 118.34-2.65 117.36-1.78 116.39-0.9 114.84-0.18 113.29 0.55 111.59 0.55L111.59 0.55Q107.84 0.55 105.49-2.5 103.14-5.55 103.14-10.45L103.14-10.45Q103.14-16.55 106.69-21.15 110.24-25.75 114.99-25.75L114.99-25.75Q116.44-25.75 117.89-25.33 119.34-24.9 120.84-24L120.84-24 117.34-17.85Q115.54-19.25 113.34-19.25ZM128.99 0Q126.04 0 124.16-1.88 122.29-3.75 122.29-6.93 122.29-10.1 125.19-12.43 128.09-14.75 132.24-14.75L132.24-14.75 135.64-14.75 135.64-15.6Q135.64-18.05 134.64-18.95 133.64-19.85 130.89-19.85L130.89-19.85Q129.74-19.85 128.16-19.38 126.59-18.9 124.64-17.9L124.64-17.9 123.19-21.85Q125.34-23.35 128.41-24.55 131.49-25.75 133.49-25.75L133.49-25.75Q141.34-25.75 141.34-18.15L141.34-18.15 141.34-8.35Q141.34-5.55 143.09-2.1L143.09-2.1 137.78 0.15Q136.53-2.25 135.94-4.15L135.94-4.15Q133.19 0 128.99 0L128.99 0ZM131.09-5.1L131.09-5.1Q133.09-5.1 135.64-7.15L135.64-7.15 135.64-10.5Q132.99-11.1 131.34-11.1L131.34-11.1Q128.19-11.1 128.19-8.3L128.19-8.3Q128.19-6.85 128.99-5.98 129.78-5.1 131.09-5.1ZM146.88-24.15L146.88-24.15 152.93-25.45Q153.38-21.6 153.53-18.15L153.53-18.15Q158.08-25.2 162.08-25.2L162.08-25.2 161.53-17.4Q158.63-17.4 156.96-16.88 155.28-16.35 153.53-14.8L153.53-14.8 153.53-13 154.08-1.25 147.38 0 147.98-12.15Q147.78-18.85 146.88-24.15ZM174.23-5.1L174.23-5.1Q175.68-5.1 177.28-5.85 178.88-6.6 179.78-7.35L179.78-7.35 180.68-8.1 182.98-5.3Q182.48-4.45 181.43-3.35 180.38-2.25 179.31-1.48 178.23-0.7 176.46-0.08 174.68 0.55 172.78 0.55L172.78 0.55Q168.73 0.55 166.18-2.53 163.63-5.6 163.63-10.45L163.63-10.45Q163.63-16.55 167.18-21.15 170.73-25.75 175.48-25.75L175.48-25.75Q179.13-25.75 181.16-23.7 183.18-21.65 183.18-17.95L183.18-17.95Q183.18-15.75 182.43-12.95L182.43-12.95 181.43-11.9 168.93-10.75Q169.78-5.1 174.23-5.1ZM174.23-20.6L174.23-20.6Q172.03-20.6 170.53-18.82 169.03-17.05 168.78-14.3L168.78-14.3 177.28-15.35Q177.43-16.5 177.43-17.25L177.43-17.25Q177.43-20.6 174.23-20.6ZM193.73-10.45Q193.73-16.85 197.18-21.3 200.63-25.75 205.25-25.75 209.88-25.75 212.45-22.75 215.03-19.75 215.03-14.8L215.03-14.8Q215.03-8.2 211.7-3.83 208.38 0.55 203.33 0.55L203.33 0.55Q199.18 0.55 196.45-2.58 193.73-5.7 193.73-10.45L193.73-10.45ZM209.43-12.2L209.43-12.2Q209.43-19.45 204.48-19.45L204.48-19.45Q199.33-19.45 199.33-12.65L199.33-12.65Q199.33-9.1 200.78-7.1 202.23-5.1 204.6-5.1 206.98-5.1 208.2-6.93 209.43-8.75 209.43-12.2ZM234.22-38.25L232.67-32.55Q230.82-33 229.32-33 227.82-33 227.15-32.1 226.47-31.2 226.47-28.95L226.47-28.95 226.42-24.2 231.82-24.2 231.27-20.1 226.42-20.1 226.37-13 226.92-1.25 220.17 0 220.77-12.15 220.57-20.1 217.27-20.1 217.82-24.2 220.47-24.2 220.42-28Q220.42-32.45 223.17-35.58 225.92-38.7 229.87-38.7L229.87-38.7Q231.97-38.7 234.22-38.25L234.22-38.25ZM249.32 11L242.87 9.65 248.02-1.9 244.32-12 239.27-24.15 245.92-25.4 249.12-14.75 250.77-9.7 251.42-9.7 252.62-13.35 256.22-25.45 262.37-24.7 253.52-1.45 249.32 11ZM263.92-10.45Q263.92-16.85 267.37-21.3 270.82-25.75 275.44-25.75 280.07-25.75 282.64-22.75 285.22-19.75 285.22-14.8L285.22-14.8Q285.22-8.2 281.89-3.83 278.57 0.55 273.52 0.55L273.52 0.55Q269.37 0.55 266.64-2.58 263.92-5.7 263.92-10.45L263.92-10.45ZM279.62-12.2L279.62-12.2Q279.62-19.45 274.67-19.45L274.67-19.45Q269.52-19.45 269.52-12.65L269.52-12.65Q269.52-9.1 270.97-7.1 272.42-5.1 274.79-5.1 277.17-5.1 278.39-6.93 279.62-8.75 279.62-12.2ZM295.51 0L295.51 0Q292.81 0 291.14-1.78 289.46-3.55 289.46-6.45L289.46-6.45 289.76-12.2 289.21-24.2 295.91-25.45 295.26-10.25Q295.26-8.1 296.04-7.1 296.81-6.1 298.51-6.1 300.21-6.1 303.21-7.8L303.21-7.8 303.21-10.8 302.66-23.95 309.41-25.2 308.81-12.7 308.86-8.6Q308.86-5.4 310.51-2.15L310.51-2.15 305.31 0.15Q303.66-3.1 303.31-5.05L303.31-5.05Q298.81 0 295.51 0ZM314.46-24.15L314.46-24.15 320.51-25.45Q320.96-21.6 321.11-18.15L321.11-18.15Q325.66-25.2 329.66-25.2L329.66-25.2 329.11-17.4Q326.21-17.4 324.54-16.88 322.86-16.35 321.11-14.8L321.11-14.8 321.11-13 321.66-1.25 314.96 0 315.56-12.15Q315.36-18.85 314.46-24.15ZM355.01-12.65Q355.01-16.1 354.41-17.25 353.81-18.4 351.61-18.4 349.41-18.4 346.61-16.65L346.61-16.65 346.61-13 347.16-1.25 340.46 0 341.06-12.15Q340.86-18.85 339.96-24.15L339.96-24.15 346.01-25.45Q346.36-22.55 346.51-19.8L346.51-19.8Q347.26-20.8 348.21-21.78 349.16-22.75 351.21-23.98 353.26-25.2 355.36-25.2 357.46-25.2 358.91-23.85 360.36-22.5 360.76-20.15L360.76-20.15Q364.91-25.2 369.16-25.2L369.16-25.2Q371.81-25.2 373.36-23.43 374.91-21.65 374.91-18.6L374.91-18.6 374.61-13 375.16-1 368.41 0.25 369.01-12.65Q369.01-16.1 368.41-17.25 367.81-18.4 365.66-18.4 363.51-18.4 360.81-16.75L360.81-16.75 360.61-13 361.16-1 354.41 0.25 355.01-12.65ZM379.15-10.45Q379.15-16.85 382.6-21.3 386.05-25.75 390.68-25.75 395.3-25.75 397.88-22.75 400.45-19.75 400.45-14.8L400.45-14.8Q400.45-8.2 397.13-3.83 393.8 0.55 388.75 0.55L388.75 0.55Q384.6 0.55 381.88-2.58 379.15-5.7 379.15-10.45L379.15-10.45ZM394.85-12.2L394.85-12.2Q394.85-19.45 389.9-19.45L389.9-19.45Q384.75-19.45 384.75-12.65L384.75-12.65Q384.75-9.1 386.2-7.1 387.65-5.1 390.03-5.1 392.4-5.1 393.63-6.93 394.85-8.75 394.85-12.2ZM419.25-12.65Q419.25-16.1 418.65-17.25 418.05-18.4 415.85-18.4 413.65-18.4 410.85-16.65L410.85-16.65 410.85-13 411.4-1.25 404.7 0 405.3-12.15Q405.1-18.85 404.2-24.15L404.2-24.15 410.25-25.45Q410.6-22.55 410.75-19.8L410.75-19.8Q411.5-20.8 412.45-21.78 413.4-22.75 415.45-23.98 417.5-25.2 419.78-25.2 422.05-25.2 423.6-23.43 425.15-21.65 425.15-18.6L425.15-18.6 424.85-13 425.4-1 418.65 0.25 419.25-12.65ZM439.9-5.1L439.9-5.1Q441.35-5.1 442.95-5.85 444.55-6.6 445.45-7.35L445.45-7.35 446.35-8.1 448.65-5.3Q448.15-4.45 447.1-3.35 446.05-2.25 444.97-1.48 443.9-0.7 442.12-0.08 440.35 0.55 438.45 0.55L438.45 0.55Q434.4 0.55 431.85-2.53 429.3-5.6 429.3-10.45L429.3-10.45Q429.3-16.55 432.85-21.15 436.4-25.75 441.15-25.75L441.15-25.75Q444.8-25.75 446.82-23.7 448.85-21.65 448.85-17.95L448.85-17.95Q448.85-15.75 448.1-12.95L448.1-12.95 447.1-11.9 434.6-10.75Q435.45-5.1 439.9-5.1ZM439.9-20.6L439.9-20.6Q437.7-20.6 436.2-18.82 434.7-17.05 434.45-14.3L434.45-14.3 442.95-15.35Q443.1-16.5 443.1-17.25L443.1-17.25Q443.1-20.6 439.9-20.6ZM460.35 11L453.9 9.65 459.05-1.9 455.35-12 450.3-24.15 456.95-25.4 460.15-14.75 461.8-9.7 462.45-9.7 463.65-13.35 467.25-25.45 473.4-24.7 464.55-1.45 460.35 11Z" opacity="1" transform="matrix(1,0,0,1,0,0)" fill="#4c5258" class="slogan-text-1" data-fill-palette-color="secondary" id="text-1"></path></svg></g></svg></g></svg></g></svg></g><g transform="matrix(1,0,0,1,409.59150444873563,0)"><svg viewBox="0 0 135.50972719800603 135.50972719800603" height="135.50972719800603" width="135.50972719800603"><g data-palette-color="#923eb9"><rect width="37.03932543412165" height="135.50972719800603" fill="#923eb9" stroke="transparent" data-fill-palette-color="accent" x="0" fill-opacity="1"></rect><rect width="37.03932543412165" height="135.50972719800603" fill="#923eb9" stroke="transparent" data-fill-palette-color="accent" x="45.16990906600201" fill-opacity="0.75"></rect><rect width="37.03932543412165" height="135.50972719800603" fill="#923eb9" stroke="transparent" data-fill-palette-color="accent" x="90.33981813200403" fill-opacity="0.5"></rect></g></svg></g></svg></g><defs></defs></svg><rect width="395.52" height="98.32450229371211" fill="none" stroke="none" visibility="hidden"></rect></g></svg></g></svg>